<svg width="256" height="256" viewBox="0 0 256 256" fill="none" xmlns="http://www.w3.org/2000/svg">
<path d="M233.707 43.671L162.083 22.5721C157.845 21.3236 153.397 23.7473 152.149 27.9855L126.905 113.678C125.657 117.916 128.081 122.364 132.319 123.613L203.942 144.712C208.181 145.96 212.629 143.536 213.877 139.298L239.12 53.6055C240.369 49.3673 237.945 44.9195 233.707 43.671Z" fill="white" stroke="#333F63" stroke-width="4"/>
<path d="M221.357 66.8933L159.965 48.8085C157.14 47.9762 154.175 49.592 153.342 52.4174C152.51 55.2429 154.126 58.2082 156.951 59.0405L218.343 77.1252C221.168 77.9576 224.134 76.3418 224.966 73.5163C225.798 70.6908 224.182 67.7256 221.357 66.8933Z" fill="#333F63"/>
<path d="M225.878 51.5453L164.487 33.4605C161.661 32.6282 158.696 34.244 157.864 37.0694C157.031 39.8949 158.647 42.8602 161.473 43.6925L222.864 61.7772C225.69 62.6096 228.655 60.9938 229.487 58.1683C230.32 55.3428 228.704 52.3776 225.878 51.5453Z" fill="#333F63"/>
<path d="M132.229 83.4379L133.791 85H136H232C242.309 85 250.667 93.3572 250.667 103.667V215.667C250.667 225.976 242.309 234.333 232 234.333H24C13.6905 234.333 5.33333 225.976 5.33333 215.667V71.6667C5.33333 61.3572 13.6905 53 24 53H101.791L132.229 83.4379Z" fill="#00F3E5"/>
<path d="M132.229 83.4379L133.791 85H136H232C242.309 85 250.667 93.3572 250.667 103.667V215.667C250.667 225.976 242.309 234.333 232 234.333H24C13.6905 234.333 5.33333 225.976 5.33333 215.667V71.6667C5.33333 61.3572 13.6905 53 24 53H101.791L132.229 83.4379Z" fill="url(#paint0_linear)"/>
<path d="M132.229 83.4379L133.791 85H136H232C242.309 85 250.667 93.3572 250.667 103.667V215.667C250.667 225.976 242.309 234.333 232 234.333H24C13.6905 234.333 5.33333 225.976 5.33333 215.667V71.6667C5.33333 61.3572 13.6905 53 24 53H101.791L132.229 83.4379Z" stroke="#333F63" stroke-width="8"/>
<path d="M101.333 207.667H26.6667C23.7212 207.667 21.3333 210.054 21.3333 213C21.3333 215.946 23.7212 218.333 26.6667 218.333H101.333C104.279 218.333 106.667 215.946 106.667 213C106.667 210.054 104.279 207.667 101.333 207.667Z" fill="#333F63"/>
<defs>
<linearGradient id="paint0_linear" x1="256" y1="79.6667" x2="2.02634e-07" y2="239.667" gradientUnits="userSpaceOnUse">
<stop stop-color="#1E0357"/>
<stop offset="0.0001" stop-color="#7C005A" stop-opacity="0.677434"/>
<stop offset="1" stop-color="#860060" stop-opacity="0"/>
</linearGradient>
</defs>
</svg>
